<svg xmlns="http://www.w3.org/2000/svg" xmlns:xlink="http://www.w3.org/1999/xlink" width="2000" zoomAndPan="magnify" viewBox="0 0 1500 1499.999933" height="2000" preserveAspectRatio="xMidYMid meet" version="1.0"><defs><clipPath id="b65dbc4e29"><path d="M 340 363 L 541 363 L 541 625 L 340 625 Z M 340 363 " clip-rule="nonzero"/></clipPath><clipPath id="1c15ec4a42"><path d="M 431.03125 321.273438 L 617.863281 423.566406 L 478.832031 677.496094 L 292 575.203125 Z M 431.03125 321.273438 " clip-rule="nonzero"/></clipPath><clipPath id="acfd7bc3cc"><path d="M 431.03125 321.273438 L 617.863281 423.566406 L 478.832031 677.496094 L 292 575.203125 Z M 431.03125 321.273438 " clip-rule="nonzero"/></clipPath><clipPath id="cac82f5017"><path d="M 431.027344 321.28125 L 542.695312 382.421875 L 403.847656 636.019531 L 292.179688 574.878906 Z M 431.027344 321.28125 " clip-rule="nonzero"/></clipPath><clipPath id="a74b02f677"><path d="M 403 394 L 572 394 L 572 638 L 403 638 Z M 403 394 " clip-rule="nonzero"/></clipPath><clipPath id="c16af4ceba"><path d="M 431.03125 321.273438 L 617.863281 423.566406 L 478.832031 677.496094 L 292 575.203125 Z M 431.03125 321.273438 " clip-rule="nonzero"/></clipPath><clipPath id="8b23b3e6a2"><path d="M 431.03125 321.273438 L 617.863281 423.566406 L 478.832031 677.496094 L 292 575.203125 Z M 431.03125 321.273438 " clip-rule="nonzero"/></clipPath><clipPath id="c00c34fc9d"><path d="M 240 586 L 359 586 L 359 738 L 240 738 Z M 240 586 " clip-rule="nonzero"/></clipPath><clipPath id="3918272eea"><path d="M 212.332031 627.753906 L 313.621094 556.660156 L 410.136719 694.167969 L 308.847656 765.261719 Z M 212.332031 627.753906 " clip-rule="nonzero"/></clipPath><clipPath id="f83461f296"><path d="M 212.332031 627.753906 L 313.621094 556.660156 L 410.136719 694.167969 L 308.847656 765.261719 Z M 212.332031 627.753906 " clip-rule="nonzero"/></clipPath><clipPath id="b13adc3754"><path d="M 212.332031 627.757812 L 272.746094 585.355469 L 369.039062 722.550781 L 308.628906 764.953125 Z M 212.332031 627.757812 " clip-rule="nonzero"/></clipPath><clipPath id="7fef32b6e6"><path d="M 278 583 L 382 583 L 382 721 L 278 721 Z M 278 583 " clip-rule="nonzero"/></clipPath><clipPath id="953e52fe7e"><path d="M 212.332031 627.753906 L 313.621094 556.660156 L 410.136719 694.167969 L 308.847656 765.261719 Z M 212.332031 627.753906 " clip-rule="nonzero"/></clipPath><clipPath id="13518063c2"><path d="M 212.332031 627.753906 L 313.621094 556.660156 L 410.136719 694.167969 L 308.847656 765.261719 Z M 212.332031 627.753906 " clip-rule="nonzero"/></clipPath><clipPath id="57457a904d"><path d="M 362 686 L 519 686 L 519 970 L 362 970 Z M 362 686 " clip-rule="nonzero"/></clipPath><clipPath id="99b3f8f8ca"><path d="M 329.386719 721.378906 L 533.003906 658.859375 L 617.980469 935.605469 L 414.359375 998.128906 Z M 329.386719 721.378906 " clip-rule="nonzero"/></clipPath><clipPath id="62f5751e74"><path d="M 329.386719 721.378906 L 533.003906 658.859375 L 617.980469 935.605469 L 414.359375 998.128906 Z M 329.386719 721.378906 " clip-rule="nonzero"/></clipPath><clipPath id="eab93aae34"><path d="M 329.386719 721.386719 L 451.089844 684.019531 L 535.953125 960.40625 L 414.253906 997.773438 Z M 329.386719 721.386719 " clip-rule="nonzero"/></clipPath><clipPath id="2754a7b52c"><path d="M 446 686 L 585 686 L 585 958 L 446 958 Z M 446 686 " clip-rule="nonzero"/></clipPath><clipPath id="ee20e24fcd"><path d="M 329.386719 721.378906 L 533.003906 658.859375 L 617.980469 935.605469 L 414.359375 998.128906 Z M 329.386719 721.378906 " clip-rule="nonzero"/></clipPath><clipPath id="1af2e2d9a9"><path d="M 329.386719 721.378906 L 533.003906 658.859375 L 617.980469 935.605469 L 414.359375 998.128906 Z M 329.386719 721.378906 " clip-rule="nonzero"/></clipPath><clipPath id="ac8269c6b8"><path d="M 962 694 L 1163 694 L 1163 956 L 962 956 Z M 962 694 " clip-rule="nonzero"/></clipPath><clipPath id="f6f3d19e12"><path d="M 1072.539062 997.78125 L 885.710938 895.488281 L 1024.742188 641.558594 L 1211.570312 743.847656 Z M 1072.539062 997.78125 " clip-rule="nonzero"/></clipPath><clipPath id="9f1ebf79b6"><path d="M 1072.539062 997.78125 L 885.710938 895.488281 L 1024.742188 641.558594 L 1211.570312 743.847656 Z M 1072.539062 997.78125 " clip-rule="nonzero"/></clipPath><clipPath id="759284561f"><path d="M 1072.542969 997.773438 L 960.875 936.632812 L 1099.726562 683.03125 L 1211.394531 744.171875 Z M 1072.542969 997.773438 " clip-rule="nonzero"/></clipPath><clipPath id="5df467a474"><path d="M 931 681 L 1100 681 L 1100 925 L 931 925 Z M 931 681 " clip-rule="nonzero"/></clipPath><clipPath id="2cb59cf1bf"><path d="M 1072.539062 997.78125 L 885.710938 895.488281 L 1024.742188 641.558594 L 1211.570312 743.847656 Z M 1072.539062 997.78125 " clip-rule="nonzero"/></clipPath><clipPath id="cd3ad09db4"><path d="M 1072.539062 997.78125 L 885.710938 895.488281 L 1024.742188 641.558594 L 1211.570312 743.847656 Z M 1072.539062 997.78125 " clip-rule="nonzero"/></clipPath><clipPath id="4aab926a4b"><path d="M 1145 560 L 1260 560 L 1260 713 L 1145 713 Z M 1145 560 " clip-rule="nonzero"/></clipPath><clipPath id="851cbbe471"><path d="M 1209.230469 736.625 L 1099.859375 678.722656 L 1178.46875 530.25 L 1287.835938 588.152344 Z M 1209.230469 736.625 " clip-rule="nonzero"/></clipPath><clipPath id="14acc9f014"><path d="M 1209.230469 736.625 L 1099.859375 678.722656 L 1178.46875 530.25 L 1287.835938 588.152344 Z M 1209.230469 736.625 " clip-rule="nonzero"/></clipPath><clipPath id="f3e7f09d57"><path d="M 1209.230469 736.621094 L 1144.003906 702.089844 L 1222.429688 553.953125 L 1287.660156 588.484375 Z M 1209.230469 736.621094 " clip-rule="nonzero"/></clipPath><clipPath id="2d0bc95e92"><path d="M 1126 553 L 1223 553 L 1223 696 L 1126 696 Z M 1126 553 " clip-rule="nonzero"/></clipPath><clipPath id="ac8a6e5b42"><path d="M 1209.230469 736.625 L 1099.859375 678.722656 L 1178.46875 530.25 L 1287.835938 588.152344 Z M 1209.230469 736.625 " clip-rule="nonzero"/></clipPath><clipPath id="de721e90d9"><path d="M 1209.230469 736.625 L 1099.859375 678.722656 L 1178.46875 530.25 L 1287.835938 588.152344 Z M 1209.230469 736.625 " clip-rule="nonzero"/></clipPath><clipPath id="3e65b5dc02"><path d="M 985 352 L 1142 352 L 1142 636 L 985 636 Z M 985 352 " clip-rule="nonzero"/></clipPath><clipPath id="4c9a34eb71"><path d="M 1174.1875 600.671875 L 970.570312 663.195312 L 885.59375 386.445312 L 1089.210938 323.925781 Z M 1174.1875 600.671875 " clip-rule="nonzero"/></clipPath><clipPath id="e502a0f82a"><path d="M 1174.1875 600.671875 L 970.570312 663.195312 L 885.59375 386.445312 L 1089.210938 323.925781 Z M 1174.1875 600.671875 " clip-rule="nonzero"/></clipPath><clipPath id="5328e6c925"><path d="M 1174.183594 600.664062 L 1052.484375 638.035156 L 967.617188 361.644531 L 1089.320312 324.277344 Z M 1174.183594 600.664062 " clip-rule="nonzero"/></clipPath><clipPath id="77278b5182"><path d="M 919 364 L 1057 364 L 1057 636 L 919 636 Z M 919 364 " clip-rule="nonzero"/></clipPath><clipPath id="393928f8ad"><path d="M 1174.1875 600.671875 L 970.570312 663.195312 L 885.59375 386.445312 L 1089.210938 323.925781 Z M 1174.1875 600.671875 " clip-rule="nonzero"/></clipPath><clipPath id="a0785ba4d9"><path d="M 1174.1875 600.671875 L 970.570312 663.195312 L 885.59375 386.445312 L 1089.210938 323.925781 Z M 1174.1875 600.671875 " clip-rule="nonzero"/></clipPath><clipPath id="5f88e1c980"><path d="M 544 913 L 692 913 L 692 1069 L 544 1069 Z M 544 913 " clip-rule="nonzero"/></clipPath><clipPath id="252795141b"><path d="M 629.839844 881.851562 L 736.054688 969.957031 L 616.824219 1113.691406 L 510.609375 1025.585938 Z M 629.839844 881.851562 " clip-rule="nonzero"/></clipPath><clipPath id="bacbc6410f"><path d="M 629.839844 881.851562 L 736.054688 969.957031 L 616.824219 1113.691406 L 510.609375 1025.585938 Z M 629.839844 881.851562 " clip-rule="nonzero"/></clipPath><clipPath id="0b31caddac"><path d="M 629.839844 881.851562 L 693.222656 934.429688 L 573.820312 1078.371094 L 510.4375 1025.792969 Z M 629.839844 881.851562 " clip-rule="nonzero"/></clipPath><clipPath id="b5da16c17b"><path d="M 574 942 L 704 942 L 704 1083 L 574 1083 Z M 574 942 " clip-rule="nonzero"/></clipPath><clipPath id="530df7dfc8"><path d="M 629.839844 881.851562 L 736.054688 969.957031 L 616.824219 1113.691406 L 510.609375 1025.585938 Z M 629.839844 881.851562 " clip-rule="nonzero"/></clipPath><clipPath id="dc853a74f3"><path d="M 629.839844 881.851562 L 736.054688 969.957031 L 616.824219 1113.691406 L 510.609375 1025.585938 Z M 629.839844 881.851562 " clip-rule="nonzero"/></clipPath><clipPath id="3ce672f96a"><path d="M 804 921 L 951 921 L 951 1079 L 804 1079 Z M 804 921 " clip-rule="nonzero"/></clipPath><clipPath id="94ee68f086"><path d="M 771.363281 977.386719 L 870.742188 881.640625 L 1000.3125 1016.128906 L 900.933594 1111.875 Z M 771.363281 977.386719 " clip-rule="nonzero"/></clipPath><clipPath id="00eb2100e4"><path d="M 771.363281 977.386719 L 870.742188 881.640625 L 1000.3125 1016.128906 L 900.933594 1111.875 Z M 771.363281 977.386719 " clip-rule="nonzero"/></clipPath><clipPath id="b33e37fb7c"><path d="M 771.363281 977.386719 L 830.667969 920.25 L 960.425781 1054.933594 L 901.121094 1112.070312 Z M 771.363281 977.386719 " clip-rule="nonzero"/></clipPath><clipPath id="9573a221e0"><path d="M 838 913 L 969 913 L 969 1054 L 838 1054 Z M 838 913 " clip-rule="nonzero"/></clipPath><clipPath id="908495c4cf"><path d="M 771.363281 977.386719 L 870.742188 881.640625 L 1000.3125 1016.128906 L 900.933594 1111.875 Z M 771.363281 977.386719 " clip-rule="nonzero"/></clipPath><clipPath id="bdb86cebb5"><path d="M 771.363281 977.386719 L 870.742188 881.640625 L 1000.3125 1016.128906 L 900.933594 1111.875 Z M 771.363281 977.386719 " clip-rule="nonzero"/></clipPath><clipPath id="50e03fc61f"><path d="M 685.941406 991.703125 L 768.289062 991.703125 L 768.289062 1178.449219 L 685.941406 1178.449219 Z M 685.941406 991.703125 " clip-rule="nonzero"/></clipPath><clipPath id="383e5a27d1"><path d="M 747 996 L 823.941406 996 L 823.941406 1177 L 747 1177 Z M 747 996 " clip-rule="nonzero"/></clipPath><clipPath id="dd0ca46833"><path d="M 751 615 L 899.753906 615 L 899.753906 762.675781 L 751 762.675781 Z M 751 615 " clip-rule="nonzero"/></clipPath><clipPath id="65f9996243"><path d="M 629 746 L 739 746 L 739 762.675781 L 629 762.675781 Z M 629 746 " clip-rule="nonzero"/></clipPath><clipPath id="2e75ed9331"><path d="M 797 456.675781 L 883 456.675781 L 883 501 L 797 501 Z M 797 456.675781 " clip-rule="nonzero"/></clipPath><clipPath id="68c796bb82"><path d="M 629 456.675781 L 739 456.675781 L 739 750 L 629 750 Z M 629 456.675781 " clip-rule="nonzero"/></clipPath></defs><g clip-path="url(#b65dbc4e29)"><g clip-path="url(#1c15ec4a42)"><g clip-path="url(#acfd7bc3cc)"><g clip-path="url(#cac82f5017)"><path fill="#542018" d="M 401.761719 613.035156 C 398.636719 617.132812 394.742188 620.585938 390.328125 623.246094 C 390.300781 623.261719 390.277344 623.277344 390.25 623.292969 C 387.0625 625.210938 383.171875 625.1875 379.894531 622.808594 C 336.941406 591.628906 326.402344 512.371094 362.632812 446.199219 C 401.027344 376.074219 467.980469 345.949219 527.027344 373.914062 C 531.667969 376.113281 535.714844 379.273438 539.570312 382.53125 C 541.460938 384.128906 541.054688 386.917969 538.835938 387.714844 C 491.003906 404.898438 457.878906 425.207031 438.464844 467.984375 C 431.511719 483.304688 426.746094 504.449219 423.746094 525.433594 C 420.824219 545.144531 423.773438 584.160156 401.761719 613.035156 " fill-opacity="1" fill-rule="nonzero"/></g></g></g></g><g clip-path="url(#a74b02f677)"><g clip-path="url(#c16af4ceba)"><g clip-path="url(#8b23b3e6a2)"><path fill="#542018" d="M 548.179688 550.566406 C 515.230469 610.742188 457.746094 644.796875 410.421875 635.902344 C 404.328125 634.757812 401.871094 627.378906 405.988281 622.738281 C 413.109375 614.714844 419.59375 606.039062 424.457031 596.367188 C 449.820312 545.929688 435.632812 517.789062 450.824219 483.835938 C 464.960938 452.230469 483.945312 425.84375 528.703125 401.164062 C 533.570312 398.484375 538.722656 396.351562 544.066406 394.828125 C 546.996094 393.25 550.863281 394.28125 552.886719 397.121094 C 578.988281 433.777344 578.601562 495.003906 548.179688 550.566406 " fill-opacity="1" fill-rule="nonzero"/></g></g></g><g clip-path="url(#c00c34fc9d)"><g clip-path="url(#3918272eea)"><g clip-path="url(#f83461f296)"><g clip-path="url(#b13adc3754)"><path fill="#542018" d="M 356.554688 717.742188 C 357.882812 720.417969 358.679688 723.328125 358.933594 726.304688 C 358.9375 726.324219 358.9375 726.339844 358.9375 726.359375 C 359.117188 728.507812 358.109375 730.527344 356.03125 731.621094 C 328.808594 745.964844 284.894531 731.136719 259.769531 695.335938 C 233.140625 657.398438 234.632812 614.863281 264.304688 591.324219 C 266.636719 589.472656 269.320312 588.179688 272.003906 587.007812 C 273.316406 586.433594 274.664062 587.359375 274.507812 588.71875 C 271.1875 617.996094 273.257812 640.425781 290.527344 661.484375 C 296.714844 669.027344 306.488281 676.921875 316.632812 683.863281 C 326.132812 690.433594 347.179688 698.898438 356.554688 717.742188 " fill-opacity="1" fill-rule="nonzero"/></g></g></g></g><g clip-path="url(#7fef32b6e6)"><g clip-path="url(#953e52fe7e)"><g clip-path="url(#13518063c2)"><path fill="#542018" d="M 361.589844 625.59375 C 384.441406 658.148438 387.417969 696.769531 370.664062 719.101562 C 368.507812 721.976562 364.039062 721.363281 362.683594 718.035156 C 360.335938 712.273438 357.484375 706.679688 353.703125 701.671875 C 333.972656 675.554688 315.703125 675.722656 301.941406 659.121094 C 289.128906 643.667969 280.269531 627.035156 278.90625 597.433594 C 278.757812 594.21875 278.96875 590.992188 279.546875 587.820312 C 279.480469 585.894531 281.007812 584.148438 283 583.824219 C 308.753906 579.644531 340.492188 595.535156 361.589844 625.59375 " fill-opacity="1" fill-rule="nonzero"/></g></g></g><g clip-path="url(#57457a904d)"><g clip-path="url(#99b3f8f8ca)"><g clip-path="url(#62f5751e74)"><g clip-path="url(#eab93aae34)"><path fill="#542018" d="M 518.03125 945.867188 C 518.789062 950.964844 518.542969 956.164062 517.371094 961.183594 C 517.367188 961.214844 517.359375 961.242188 517.351562 961.273438 C 516.503906 964.894531 513.773438 967.667969 509.777344 968.355469 C 457.476562 977.382812 393.335938 929.648438 371.191406 857.535156 C 347.722656 781.105469 372.839844 712.117188 434.0625 689.3125 C 438.875 687.523438 443.964844 686.824219 448.988281 686.335938 C 451.453125 686.097656 453.167969 688.332031 452.191406 690.476562 C 431.136719 736.738281 422.585938 774.640625 439.695312 818.390625 C 445.820312 834.058594 457.652344 852.222656 470.59375 869.011719 C 482.679688 884.851562 512.695312 909.953125 518.03125 945.867188 " fill-opacity="1" fill-rule="nonzero"/></g></g></g></g><g clip-path="url(#2754a7b52c)"><g clip-path="url(#ee20e24fcd)"><g clip-path="url(#1af2e2d9a9)"><path fill="#542018" d="M 575.398438 797.378906 C 595.535156 862.960938 579.839844 927.90625 540.460938 955.613281 C 535.390625 959.179688 528.386719 955.792969 527.933594 949.609375 C 527.148438 938.910156 525.457031 928.210938 521.917969 917.980469 C 503.46875 864.621094 473.410156 855.160156 459.675781 820.59375 C 446.890625 788.414062 441.222656 756.40625 454.761719 707.121094 C 456.234375 701.761719 458.300781 696.582031 460.933594 691.691406 C 461.851562 688.492188 465.289062 686.441406 468.730469 686.972656 C 513.203125 693.835938 556.804688 736.820312 575.398438 797.378906 " fill-opacity="1" fill-rule="nonzero"/></g></g></g><g clip-path="url(#ac8269c6b8)"><g clip-path="url(#f6f3d19e12)"><g clip-path="url(#9f1ebf79b6)"><g clip-path="url(#759284561f)"><path fill="#542018" d="M 1101.8125 706.015625 C 1104.933594 701.921875 1108.832031 698.46875 1113.242188 695.808594 C 1113.269531 695.789062 1113.296875 695.773438 1113.324219 695.757812 C 1116.511719 693.839844 1120.402344 693.863281 1123.679688 696.246094 C 1166.632812 727.425781 1177.167969 806.679688 1140.941406 872.851562 C 1102.542969 942.980469 1035.59375 973.101562 976.546875 945.140625 C 971.90625 942.941406 967.855469 939.78125 964 936.519531 C 962.109375 934.921875 962.519531 932.136719 964.738281 931.339844 C 1012.570312 914.152344 1045.695312 893.84375 1065.109375 851.070312 C 1072.0625 835.75 1076.824219 814.605469 1079.828125 793.617188 C 1082.746094 773.910156 1079.796875 734.890625 1101.8125 706.015625 " fill-opacity="1" fill-rule="nonzero"/></g></g></g></g><g clip-path="url(#5df467a474)"><g clip-path="url(#2cb59cf1bf)"><g clip-path="url(#cd3ad09db4)"><path fill="#542018" d="M 955.394531 768.484375 C 988.339844 708.3125 1045.824219 674.257812 1093.148438 683.148438 C 1099.242188 684.292969 1101.699219 691.675781 1097.585938 696.3125 C 1090.464844 704.335938 1083.980469 713.011719 1079.117188 722.683594 C 1053.75 773.125 1067.9375 801.261719 1052.75 835.214844 C 1038.609375 866.824219 1019.628906 893.210938 974.867188 917.886719 C 970.003906 920.570312 964.851562 922.703125 959.507812 924.226562 C 956.578125 925.800781 952.707031 924.769531 950.683594 921.929688 C 924.585938 885.277344 924.972656 824.050781 955.394531 768.484375 " fill-opacity="1" fill-rule="nonzero"/></g></g></g><g clip-path="url(#4aab926a4b)"><g clip-path="url(#851cbbe471)"><g clip-path="url(#14acc9f014)"><g clip-path="url(#f3e7f09d57)"><path fill="#542018" d="M 1223.824219 567.257812 C 1225.601562 564.859375 1227.832031 562.824219 1230.371094 561.246094 C 1230.386719 561.238281 1230.398438 561.226562 1230.414062 561.21875 C 1232.246094 560.082031 1234.503906 560.0625 1236.421875 561.414062 C 1261.574219 579.140625 1268.328125 625 1247.863281 663.652344 C 1226.175781 704.617188 1187.609375 722.621094 1153.152344 706.890625 C 1150.445312 705.65625 1148.074219 703.855469 1145.8125 701.996094 C 1144.703125 701.085938 1144.917969 699.46875 1146.195312 698.988281 C 1173.785156 688.636719 1192.820312 676.59375 1203.730469 651.640625 C 1207.636719 642.703125 1210.222656 630.40625 1211.792969 618.21875 C 1213.324219 606.769531 1211.300781 584.175781 1223.824219 567.257812 " fill-opacity="1" fill-rule="nonzero"/></g></g></g></g><g clip-path="url(#2d0bc95e92)"><g clip-path="url(#ac8a6e5b42)"><g clip-path="url(#de721e90d9)"><path fill="#542018" d="M 1139.457031 604.660156 C 1158.066406 569.511719 1191.113281 549.300781 1218.617188 554.070312 C 1222.160156 554.6875 1223.644531 558.945312 1221.296875 561.667969 C 1217.234375 566.375 1213.546875 571.457031 1210.804688 577.105469 C 1196.511719 606.550781 1204.964844 622.746094 1196.433594 642.550781 C 1188.496094 660.988281 1177.707031 676.4375 1151.960938 691.109375 C 1149.160156 692.703125 1146.191406 693.980469 1143.105469 694.90625 C 1141.421875 695.84375 1139.171875 695.277344 1137.976562 693.648438 C 1122.546875 672.613281 1122.273438 637.117188 1139.457031 604.660156 " fill-opacity="1" fill-rule="nonzero"/></g></g></g><g clip-path="url(#3e65b5dc02)"><g clip-path="url(#4c9a34eb71)"><g clip-path="url(#e502a0f82a)"><g clip-path="url(#5328e6c925)"><path fill="#542018" d="M 985.542969 376.183594 C 984.785156 371.089844 985.027344 365.890625 986.199219 360.871094 C 986.207031 360.839844 986.214844 360.808594 986.222656 360.777344 C 987.070312 357.15625 989.800781 354.386719 993.792969 353.699219 C 1046.097656 344.667969 1110.238281 392.402344 1132.382812 464.519531 C 1155.847656 540.949219 1130.734375 609.933594 1069.507812 632.738281 C 1064.695312 634.53125 1059.609375 635.226562 1054.582031 635.714844 C 1052.121094 635.957031 1050.40625 633.71875 1051.382812 631.574219 C 1072.433594 585.3125 1080.988281 547.410156 1063.878906 503.660156 C 1057.75 487.992188 1045.921875 469.832031 1032.976562 453.039062 C 1020.890625 437.203125 990.878906 412.097656 985.542969 376.183594 " fill-opacity="1" fill-rule="nonzero"/></g></g></g></g><g clip-path="url(#77278b5182)"><g clip-path="url(#393928f8ad)"><g clip-path="url(#a0785ba4d9)"><path fill="#542018" d="M 928.171875 524.671875 C 908.035156 459.09375 923.730469 394.148438 963.113281 366.4375 C 968.183594 362.871094 975.1875 366.261719 975.640625 372.441406 C 976.421875 383.144531 978.117188 393.839844 981.652344 404.070312 C 1000.101562 457.429688 1030.160156 466.890625 1043.898438 501.460938 C 1056.683594 533.636719 1062.351562 565.644531 1048.8125 614.933594 C 1047.339844 620.289062 1045.273438 625.46875 1042.636719 630.363281 C 1041.722656 633.558594 1038.285156 635.613281 1034.839844 635.082031 C 990.367188 628.214844 946.765625 585.230469 928.171875 524.671875 " fill-opacity="1" fill-rule="nonzero"/></g></g></g><g clip-path="url(#5f88e1c980)"><g clip-path="url(#252795141b)"><g clip-path="url(#bacbc6410f)"><g clip-path="url(#0b31caddac)"><path fill="#542018" d="M 575.328125 1063.519531 C 572.839844 1065.734375 569.9375 1067.445312 566.808594 1068.59375 C 566.789062 1068.601562 566.769531 1068.609375 566.75 1068.613281 C 564.492188 1069.441406 562.023438 1068.945312 560.234375 1067.03125 C 536.800781 1041.941406 539.867188 990.3125 571.023438 952.757812 C 604.042969 912.953125 650.265625 902.066406 684.320312 927.097656 C 686.996094 929.0625 689.175781 931.570312 691.222656 934.113281 C 692.226562 935.363281 691.625 937.082031 690.117188 937.316406 C 657.625 942.335938 634.089844 951.152344 616.496094 975.925781 C 610.191406 984.800781 604.566406 997.640625 600.074219 1010.597656 C 595.792969 1022.753906 592.859375 1047.890625 575.328125 1063.519531 " fill-opacity="1" fill-rule="nonzero"/></g></g></g></g><g clip-path="url(#b5da16c17b)"><g clip-path="url(#530df7dfc8)"><g clip-path="url(#dc853a74f3)"><path fill="#542018" d="M 675.996094 1041.878906 C 647.664062 1076.035156 606.96875 1090.582031 578.011719 1079.105469 C 574.28125 1077.628906 573.628906 1072.640625 576.816406 1070.199219 C 582.324219 1065.980469 587.511719 1061.269531 591.789062 1055.730469 C 614.109375 1026.824219 608.566406 1007.207031 622.390625 987.515625 C 635.261719 969.1875 650.566406 954.765625 682.027344 944.609375 C 685.449219 943.503906 688.980469 942.785156 692.5625 942.476562 C 694.617188 941.835938 696.949219 942.96875 697.882812 945.019531 C 709.941406 971.507812 702.15625 1010.339844 675.996094 1041.878906 " fill-opacity="1" fill-rule="nonzero"/></g></g></g><g clip-path="url(#3ce672f96a)"><g clip-path="url(#94ee68f086)"><g clip-path="url(#00eb2100e4)"><g clip-path="url(#b33e37fb7c)"><path fill="#542018" d="M 945.832031 1051.78125 C 947.757812 1054.503906 949.136719 1057.574219 949.929688 1060.8125 C 949.933594 1060.832031 949.9375 1060.851562 949.941406 1060.871094 C 950.511719 1063.207031 949.746094 1065.605469 947.644531 1067.171875 C 920.101562 1087.667969 869.136719 1078.871094 835.28125 1043.730469 C 799.398438 1006.488281 793.726562 959.335938 822.390625 928.28125 C 824.644531 925.84375 827.375 923.953125 830.132812 922.203125 C 831.484375 921.34375 833.128906 922.132812 833.191406 923.65625 C 834.566406 956.503906 840.707031 980.875 863.367188 1001.121094 C 871.484375 1008.371094 883.617188 1015.394531 895.996094 1021.296875 C 907.597656 1026.90625 932.257812 1032.617188 945.832031 1051.78125 " fill-opacity="1" fill-rule="nonzero"/></g></g></g></g><g clip-path="url(#9573a221e0)"><g clip-path="url(#908495c4cf)"><g clip-path="url(#bdb86cebb5)"><path fill="#542018" d="M 935.535156 949.328125 C 966.324219 981.289062 976.25 1023.351562 961.621094 1050.851562 C 959.738281 1054.390625 954.707031 1054.484375 952.640625 1051.046875 C 949.058594 1045.101562 944.957031 1039.425781 939.925781 1034.554688 C 913.683594 1009.15625 893.570312 1012.480469 875.542969 996.550781 C 858.757812 981.71875 846.132812 964.90625 839.539062 932.507812 C 838.824219 928.988281 838.5 925.394531 838.589844 921.800781 C 838.183594 919.6875 839.570312 917.5 841.710938 916.796875 C 869.378906 907.761719 907.105469 919.820312 935.535156 949.328125 " fill-opacity="1" fill-rule="nonzero"/></g></g></g><g clip-path="url(#50e03fc61f)"><path fill="#542018" d="M 759.96875 1166.328125 C 759.46875 1169.621094 758.328125 1172.792969 756.652344 1175.671875 C 756.640625 1175.691406 756.632812 1175.707031 756.621094 1175.722656 C 755.410156 1177.800781 753.195312 1178.996094 750.59375 1178.664062 C 716.539062 1174.316406 685.941406 1132.621094 685.941406 1083.824219 C 685.941406 1032.109375 714.570312 994.21875 756.757812 991.742188 C 760.074219 991.546875 763.351562 992.082031 766.550781 992.734375 C 768.121094 993.054688 768.753906 994.761719 767.746094 995.90625 C 745.941406 1020.515625 733.457031 1042.324219 735.730469 1072.628906 C 736.542969 1083.480469 740.410156 1096.957031 745.226562 1109.796875 C 749.691406 1121.886719 763.488281 1143.105469 759.96875 1166.328125 " fill-opacity="1" fill-rule="nonzero"/></g><g clip-path="url(#383e5a27d1)"><path fill="#542018" d="M 823.632812 1085.402344 C 823.632812 1129.777344 801.597656 1166.957031 771.984375 1176.613281 C 768.171875 1177.855469 764.484375 1174.429688 765.378906 1170.519531 C 766.925781 1163.753906 767.910156 1156.820312 767.664062 1149.820312 C 766.390625 1113.324219 749.597656 1101.765625 747.667969 1077.78125 C 745.871094 1055.457031 748.445312 1034.589844 766.175781 1006.683594 C 768.101562 1003.652344 770.363281 1000.839844 772.921875 998.316406 C 774.09375 996.511719 776.609375 995.894531 778.640625 996.878906 C 804.835938 1009.566406 823.632812 1044.425781 823.632812 1085.402344 " fill-opacity="1" fill-rule="nonzero"/></g><path fill="#542018" d="M 868.402344 478.183594 C 867.835938 476.574219 866.972656 475.414062 865.78125 474.726562 C 864.707031 474.042969 863.128906 473.6875 861.164062 473.65625 C 859.378906 473.65625 857.949219 474.132812 856.933594 475.085938 C 856.308594 475.652344 855.773438 476.457031 855.324219 477.527344 C 855.953125 478.003906 856.488281 478.628906 856.875 479.257812 C 857.648438 480.535156 857.949219 482.027344 857.828125 483.8125 C 857.53125 486.644531 856.695312 488.667969 855.5625 490.84375 C 852.792969 495.699219 847.96875 498.230469 844.394531 499.511719 C 840.699219 500.882812 836.679688 501.6875 831.378906 502.164062 C 829.144531 502.339844 827 502.460938 824.882812 502.519531 C 823.929688 502.550781 823.007812 502.550781 822.082031 502.519531 C 820.832031 502.519531 819.582031 502.488281 818.359375 502.402344 C 817.792969 502.371094 817.226562 502.3125 816.664062 502.28125 C 815.859375 502.222656 815.054688 502.164062 814.25 502.074219 C 806.566406 501.328125 799.265625 499.839844 792.980469 498.410156 C 785.535156 496.679688 777.703125 494.597656 768.378906 491.765625 C 748.808594 485.957031 733.707031 482.890625 719.4375 481.90625 C 716.964844 481.726562 714.523438 481.667969 712.109375 481.667969 C 709.90625 481.667969 707.761719 481.757812 705.617188 481.90625 C 705.46875 482.679688 705.347656 483.484375 705.230469 484.320312 C 705.972656 484.261719 706.75 484.199219 707.492188 484.140625 C 712.496094 483.84375 716.519531 483.8125 720.152344 484.113281 C 723.964844 484.378906 728.046875 484.914062 732.664062 485.691406 C 740.199219 486.972656 748.183594 488.789062 757.058594 491.199219 C 761.796875 492.453125 766.53125 493.910156 771.148438 495.28125 C 774.363281 496.265625 777.671875 497.246094 780.917969 498.171875 C 787.917969 500.136719 796.257812 502.371094 804.777344 504.097656 C 807.339844 504.605469 809.722656 505.023438 812.046875 505.410156 C 812.851562 505.527344 813.652344 505.648438 814.429688 505.765625 C 816.007812 506.003906 817.554688 506.183594 819.046875 506.363281 C 819.910156 506.453125 820.773438 506.539062 821.636719 506.628906 C 824.167969 506.839844 826.582031 506.988281 828.933594 507.019531 C 838.554688 507.078125 846.03125 506.035156 852.40625 503.679688 C 854.371094 502.9375 856.039062 502.132812 857.53125 501.210938 C 858.960938 500.34375 860.390625 499.214844 862.027344 497.722656 C 865.125 494.863281 867.269531 491.828125 868.371094 488.699219 C 868.96875 486.972656 869.238281 485.214844 869.238281 483.484375 C 869.148438 481.429688 868.910156 479.644531 868.402344 478.183594 Z M 868.402344 478.183594 " fill-opacity="1" fill-rule="nonzero"/><path fill="#542018" d="M 636.570312 613.058594 C 642.261719 618.300781 649.585938 621.90625 657.777344 623.425781 C 659.65625 623.78125 661.53125 624.050781 663.4375 624.257812 C 664.152344 624.320312 664.898438 624.378906 665.613281 624.4375 C 667.042969 624.527344 668.472656 624.617188 669.871094 624.617188 C 670.914062 624.675781 671.390625 624.558594 672.105469 624.347656 C 672.730469 624.109375 673.386719 623.722656 673.984375 623.214844 C 674.28125 622.949219 674.609375 622.621094 674.9375 622.261719 C 671.71875 622.054688 668.679688 621.546875 665.851562 620.804688 C 665.792969 620.773438 665.703125 620.746094 665.613281 620.746094 C 664.898438 620.566406 664.152344 620.328125 663.4375 620.089844 C 660.28125 619.074219 657.0625 617.585938 653.816406 615.621094 C 646.3125 611.152344 640.292969 604.183594 636.839844 595.992188 C 633.710938 588.8125 632.011719 580.589844 631.65625 570.910156 C 631.296875 562.210938 632.222656 553.695312 634.425781 545.589844 C 636.539062 537.726562 640.027344 529.921875 644.761719 522.359375 C 649.410156 514.941406 654.890625 508.386719 661.027344 502.847656 C 661.800781 502.164062 662.605469 501.476562 663.410156 500.792969 L 663.410156 500.554688 C 663.410156 498.707031 663.378906 496.949219 663.320312 495.28125 C 651.671875 502.339844 641.933594 511.695312 634.960938 522.804688 C 632.816406 526.199219 630.851562 529.835938 629.0625 533.617188 C 627.097656 538.027344 625.667969 541.660156 624.535156 545.085938 C 621.796875 553.457031 620.277344 561.558594 620.007812 569.183594 C 619.679688 577.433594 620.933594 585.445312 623.703125 593.070312 C 626.652344 601.144531 631.089844 608.085938 636.570312 613.058594 Z M 636.570312 613.058594 " fill-opacity="1" fill-rule="nonzero"/><path fill="#542018" d="M 811.449219 561.410156 C 811.210938 561.410156 811.003906 561.410156 810.765625 561.410156 C 806.238281 561.410156 801.800781 563.136719 798.195312 566.292969 C 794.949219 569.09375 792.089844 572.996094 789.199219 578.566406 C 784.671875 587.351562 781.78125 597.511719 780.621094 608.738281 L 780.5 609.871094 L 779.488281 610.378906 C 778.296875 610.972656 777.015625 611.480469 775.792969 612.015625 C 775.109375 612.316406 774.453125 612.640625 773.769531 612.910156 C 767.78125 615.234375 761.199219 616.902344 754.140625 617.855469 L 751.488281 618.210938 L 751.996094 615.472656 L 754.4375 587.023438 C 754.675781 584.703125 754.945312 582.347656 755.242188 579.964844 C 755.390625 578.683594 755.597656 577.34375 755.777344 576.035156 C 756.550781 570.433594 757.476562 564.625 758.609375 558.429688 L 758.996094 556.433594 C 760.632812 547.707031 762.332031 538.679688 766.410156 530.160156 C 768.765625 525.457031 771.863281 521.375 775.675781 518.070312 C 778.625 515.417969 782.46875 513.570312 786.546875 512.855469 C 785.832031 512.320312 784.878906 512.109375 783.480469 512.171875 C 780.859375 512.230469 778.328125 512.617188 775.972656 513.332031 C 771.355469 514.730469 767.097656 517.679688 763.640625 521.851562 C 761.824219 524.027344 760.453125 526.109375 759.261719 528.34375 C 757.980469 530.636719 756.761719 532.992188 755.480469 535.613281 C 754.320312 537.964844 753.1875 540.410156 751.996094 543.089844 C 750.65625 546.039062 749.851562 548.214844 749.164062 550.566406 C 746.367188 560.542969 744.339844 571.117188 742.402344 581.335938 L 742.105469 582.886719 C 741.71875 584.941406 741.359375 587.023438 740.972656 589.171875 C 740.796875 590.125 740.644531 591.078125 740.46875 592.03125 C 739.214844 599.117188 737.90625 606.804688 736.476562 615.679688 L 736.355469 616.335938 L 736.027344 618.300781 L 735.074219 618.09375 L 733.40625 617.734375 C 728.703125 616.753906 724.441406 615.324219 720.75 613.507812 L 720.75 613.832031 C 722.535156 614.996094 724.351562 615.949219 726.199219 616.664062 C 727.332031 617.109375 728.523438 617.527344 729.773438 617.882812 L 732.753906 618.660156 C 733.527344 618.867188 734.390625 619.3125 735.046875 619.820312 L 735.105469 619.878906 L 735.105469 619.96875 C 735.164062 621.25 735.136719 622.292969 735.074219 623.277344 C 735.015625 624.320312 734.835938 625.628906 734.6875 626.492188 L 733.882812 631.257812 L 732.214844 640.789062 C 730.996094 647.703125 729.832031 653.925781 728.640625 659.792969 C 727.332031 666.378906 726.019531 672.753906 724.652344 678.738281 C 723.308594 684.847656 721.554688 691.191406 719.40625 697.59375 C 717.351562 703.789062 714.703125 709.867188 711.484375 715.644531 C 709.222656 719.785156 706.867188 723.628906 704.394531 727.351562 C 703.738281 728.335938 703.085938 729.289062 702.398438 730.269531 C 701.921875 730.925781 701.476562 731.609375 700.96875 732.265625 C 696.652344 738.015625 691.378906 742.601562 685.6875 745.582031 C 678.839844 749.066406 672.464844 750.855469 666.148438 751.0625 C 663.4375 751.121094 660.996094 751.03125 658.613281 750.882812 C 657.777344 750.824219 656.976562 750.765625 656.140625 750.675781 C 656.023438 750.675781 655.871094 750.644531 655.753906 750.617188 C 652.597656 750.257812 649.378906 749.542969 646.160156 748.441406 C 639.371094 746.148438 633.53125 741.769531 629.71875 736.140625 C 626.324219 731.285156 624 725.089844 622.628906 717.195312 C 619.59375 699.949219 625.132812 680.316406 637.078125 665.992188 C 644.167969 657.472656 653.398438 651.394531 663.257812 648.566406 L 663.257812 646.003906 C 654.800781 646.988281 646.3125 651.097656 639.429688 657.621094 C 632.609375 664.054688 627.1875 672.8125 623.316406 683.625 C 619.265625 694.914062 617.804688 705.636719 619.054688 715.585938 C 621.023438 731.492188 629.929688 744.09375 643.453125 750.140625 C 646.191406 751.332031 649.140625 752.285156 652.269531 753 C 653.3125 753.238281 654.382812 753.445312 655.484375 753.625 C 658.375 754.128906 661.351562 754.488281 664.511719 754.605469 C 672.316406 754.84375 679.640625 754.160156 686.316406 752.640625 C 693.554688 750.882812 699.839844 748.171875 705.050781 744.570312 C 705.347656 744.359375 705.675781 744.179688 705.972656 743.972656 C 706.273438 743.765625 706.570312 743.496094 706.867188 743.257812 C 709.429688 741.351562 711.84375 739.207031 714.015625 736.855469 C 716.488281 734.113281 718.871094 730.957031 720.867188 728.214844 C 725.753906 721.394531 729.445312 715.199219 732.15625 709.242188 C 734.75 703.375 737.011719 696.671875 739.214844 688.210938 C 740.914062 681.71875 742.492188 674.539062 744.042969 666.289062 C 745.828125 656.636719 747.4375 646.390625 748.988281 634.65625 C 749.136719 633.640625 749.253906 632.570312 749.402344 631.527344 C 749.820312 628.371094 750.207031 625.121094 750.625 621.699219 L 750.863281 619.640625 L 752.917969 619.464844 C 760.664062 618.71875 767.929688 616.929688 774.691406 614.222656 C 775.378906 613.953125 776.09375 613.683594 776.777344 613.386719 C 776.898438 613.328125 777.046875 613.296875 777.164062 613.238281 L 780.738281 611.628906 L 780.738281 615.5625 C 780.738281 616.722656 780.769531 617.824219 780.800781 618.925781 C 780.859375 620.328125 780.949219 621.699219 781.097656 623.007812 C 781.664062 628.996094 782.972656 634.027344 785.027344 638.289062 C 786.28125 640.878906 788.515625 644.1875 792.058594 645.4375 C 793.132812 645.824219 794.472656 646.0625 795.78125 646.0625 C 795.839844 646.0625 795.871094 646.0625 795.929688 646.0625 C 795.601562 645.882812 795.277344 645.707031 794.976562 645.527344 C 793.308594 644.425781 791.878906 642.816406 790.746094 640.761719 C 789.289062 638.050781 788.542969 635.28125 788.066406 632.570312 C 787.917969 631.644531 787.769531 630.753906 787.648438 629.890625 C 787.589844 629.292969 787.53125 628.699219 787.472656 628.070312 C 787.234375 625.390625 787.144531 622.5 787.203125 619.105469 C 787.292969 615.828125 787.621094 612.34375 788.15625 608.472656 L 788.304688 607.339844 L 789.378906 606.625 C 793.996094 603.648438 798.074219 599.921875 801.5 596.675781 C 805.640625 592.683594 808.859375 588.753906 811.332031 584.703125 C 814.191406 580.085938 815.917969 575.347656 816.425781 570.613281 C 816.664062 568.257812 816.78125 565.609375 815.917969 563.910156 C 815.382812 562.332031 813.863281 561.496094 811.449219 561.410156 Z M 815.558594 567.84375 L 815.558594 567.902344 C 815.558594 568.410156 815.5 568.945312 815.472656 569.449219 C 815.320312 571.179688 814.875 573.054688 814.101562 575.289062 C 812.878906 578.832031 811.183594 582.289062 809.066406 585.535156 C 805.460938 591.136719 800.457031 596.496094 793.757812 601.859375 L 788.15625 606.355469 L 789.585938 599.328125 C 790.332031 595.664062 791.164062 592.296875 792.089844 589.109375 C 792.773438 586.667969 793.875 584.316406 794.917969 582.019531 C 795.335938 581.128906 795.753906 580.234375 796.140625 579.339844 C 796.675781 578.207031 797.121094 576.988281 797.539062 575.796875 C 798.3125 573.679688 799.117188 571.476562 800.519531 569.480469 C 801.621094 567.753906 802.902344 566.292969 804.390625 565.074219 C 805.761719 563.941406 807.964844 562.628906 810.644531 562.628906 C 810.675781 562.628906 810.707031 562.628906 810.734375 562.628906 C 811.507812 562.628906 812.34375 562.71875 813.265625 563.226562 C 814.308594 563.730469 815.082031 564.894531 815.292969 565.757812 C 815.558594 566.589844 815.558594 567.425781 815.558594 567.84375 Z M 815.558594 567.84375 " fill-opacity="1" fill-rule="nonzero"/><g clip-path="url(#dd0ca46833)"><path fill="#542018" d="M 878.261719 749.75 C 871.859375 745.34375 865.929688 739.238281 860.628906 731.671875 L 797.957031 646.003906 C 797.957031 646.183594 797.957031 646.390625 797.925781 646.570312 C 797.71875 647.464844 796.914062 648.089844 795.992188 648.089844 C 794.261719 648.089844 792.714844 647.820312 791.433594 647.34375 C 787.292969 645.914062 784.730469 642.132812 783.332031 639.210938 C 780.800781 634 779.398438 627.683594 778.980469 620.027344 L 775.945312 615.890625 C 768.882812 618.777344 761.257812 620.683594 753.15625 621.429688 L 752.679688 621.460938 L 752.621094 621.9375 C 752.113281 626.074219 751.636719 630.039062 751.132812 633.851562 C 752.234375 635.371094 753.335938 636.976562 754.46875 638.675781 L 820.386719 735.632812 C 823.722656 740.191406 825.359375 744.179688 825.359375 747.726562 C 825.359375 750.554688 824.230469 754.398438 818.777344 756.8125 C 815.53125 758.242188 810.882812 759.132812 804.597656 759.550781 L 804.597656 762.886719 C 818.507812 762.113281 833.222656 761.726562 848.386719 761.726562 C 868.582031 761.726562 885.859375 762.113281 899.859375 762.886719 L 899.859375 759.105469 C 891.488281 757.019531 884.21875 753.863281 878.261719 749.75 Z M 878.261719 749.75 " fill-opacity="1" fill-rule="nonzero"/></g><g clip-path="url(#65f9996243)"><path fill="#542018" d="M 705.914062 746.445312 C 700.582031 750.050781 694.207031 752.820312 686.878906 754.578125 C 680.894531 755.945312 674.429688 756.660156 667.609375 756.660156 C 666.597656 756.660156 665.582031 756.632812 664.570312 756.632812 C 660.460938 756.484375 656.585938 756.007812 652.921875 755.230469 C 652.269531 755.53125 651.613281 755.796875 650.929688 756.066406 C 646.074219 757.792969 638.894531 758.957031 629.035156 759.582031 L 629.035156 762.917969 C 641.695312 762.171875 660.191406 761.785156 684.109375 761.785156 C 706.777344 761.785156 725.128906 762.171875 738.738281 762.945312 L 738.738281 759.582031 C 728.878906 758.925781 721.703125 757.792969 716.847656 756.066406 C 711.8125 754.277344 708.179688 751.03125 705.914062 746.445312 Z M 705.914062 746.445312 " fill-opacity="1" fill-rule="nonzero"/></g><path fill="#542018" d="M 796.167969 643.917969 C 796.316406 644.039062 796.496094 644.125 796.675781 644.214844 L 791.34375 636.917969 C 791.699219 637.902344 792.089844 638.882812 792.625 639.867188 C 793.578125 641.625 794.769531 642.996094 796.167969 643.917969 Z M 796.167969 643.917969 " fill-opacity="1" fill-rule="nonzero"/><path fill="#542018" d="M 813.148438 507.613281 C 809.960938 512.230469 806.207031 517.203125 801.769531 522.535156 L 758.457031 576.273438 C 758.191406 576.601562 757.921875 576.898438 757.65625 577.226562 C 757.328125 579.609375 757.027344 581.933594 756.789062 584.253906 L 817.554688 508.210938 C 816.125 508.03125 814.636719 507.820312 813.148438 507.613281 Z M 813.148438 507.613281 " fill-opacity="1" fill-rule="nonzero"/><path fill="#542018" d="M 756.285156 588.960938 L 753.929688 615.890625 C 760.632812 614.964844 766.859375 613.417969 772.546875 611.242188 Z M 756.285156 588.960938 " fill-opacity="1" fill-rule="nonzero"/><g clip-path="url(#2e75ed9331)"><path fill="#542018" d="M 825.421875 478.480469 C 825.421875 484.4375 822.886719 491.707031 817.765625 500.375 C 818.003906 500.375 818.210938 500.40625 818.449219 500.433594 C 820.148438 500.523438 821.875 500.554688 823.664062 500.554688 L 829.621094 493.105469 C 837.929688 482.59375 846.71875 474.726562 855.714844 469.722656 C 863.992188 465.136719 872.929688 461.949219 882.3125 460.3125 L 882.3125 456.796875 C 873.464844 457.511719 861.492188 457.867188 846.65625 457.867188 C 830.1875 457.867188 813.652344 457.480469 797.449219 456.675781 L 797.449219 459.984375 C 816.007812 460.789062 825.421875 467.011719 825.421875 478.480469 Z M 825.421875 478.480469 " fill-opacity="1" fill-rule="nonzero"/></g><g clip-path="url(#68c796bb82)"><path fill="#542018" d="M 629.003906 456.707031 L 629.003906 460.074219 C 638.894531 460.730469 646.074219 461.890625 650.898438 463.589844 C 656.648438 465.613281 660.609375 469.574219 662.695312 475.355469 C 663.230469 476.8125 663.675781 478.480469 664.035156 480.359375 C 664.152344 480.984375 664.273438 481.640625 664.390625 482.324219 C 664.839844 485.035156 665.136719 488.164062 665.34375 491.707031 C 665.375 492.421875 665.40625 493.167969 665.433594 493.910156 C 665.492188 495.550781 665.523438 497.246094 665.554688 499.035156 C 665.554688 499.511719 665.582031 499.988281 665.582031 500.496094 L 665.582031 618.597656 C 665.820312 618.660156 666.058594 618.75 666.296875 618.808594 C 669.039062 619.523438 671.957031 620 675.027344 620.207031 C 675.769531 620.265625 676.425781 620.714844 676.722656 621.398438 C 677.019531 622.085938 676.902344 622.890625 676.425781 623.453125 C 676.039062 623.929688 675.652344 624.320312 675.265625 624.644531 C 674.488281 625.332031 673.65625 625.835938 672.761719 626.164062 C 671.957031 626.433594 671.332031 626.582031 670.347656 626.582031 C 670.171875 626.582031 669.960938 626.582031 669.753906 626.550781 C 668.382812 626.550781 666.984375 626.492188 665.582031 626.402344 L 665.582031 684.308594 C 665.644531 684.28125 665.703125 684.28125 665.761719 684.25 C 665.703125 684.28125 665.644531 684.308594 665.582031 684.339844 L 665.582031 719.101562 C 665.582031 730.6875 664.628906 738.910156 662.722656 744.269531 C 662.097656 746.027344 661.265625 747.605469 660.28125 749.035156 C 662.21875 749.15625 664.152344 749.183594 666.269531 749.15625 C 672.253906 748.976562 678.363281 747.25 684.945312 743.914062 C 690.367188 741.082031 695.429688 736.703125 699.539062 731.195312 C 700.492188 729.882812 701.417969 728.542969 702.339844 727.203125 C 702.222656 724.730469 702.160156 722.050781 702.160156 719.160156 L 702.160156 684.964844 C 702.070312 684.90625 701.984375 684.875 701.894531 684.816406 C 701.984375 684.84375 702.070312 684.90625 702.160156 684.933594 L 702.160156 605.253906 L 705.019531 605.402344 C 716.308594 606.03125 725.246094 608.472656 731.652344 612.671875 C 732.632812 613.296875 733.617188 614.070312 734.660156 614.9375 C 735.96875 606.984375 737.160156 599.953125 738.292969 593.429688 C 728.703125 598.640625 717.5625 601.53125 704.992188 602.039062 L 702.160156 602.15625 L 702.160156 500.523438 C 702.160156 495.164062 702.371094 490.546875 702.785156 486.582031 C 702.847656 485.898438 702.9375 485.214844 703.023438 484.558594 C 703.144531 483.695312 703.261719 482.859375 703.382812 482.085938 C 703.5 481.402344 703.621094 480.746094 703.738281 480.121094 C 704.097656 478.332031 704.542969 476.753906 705.050781 475.382812 C 707.136719 469.605469 711.097656 465.644531 716.847656 463.617188 C 721.671875 461.890625 728.851562 460.757812 738.738281 460.101562 L 738.738281 456.738281 C 724.917969 457.511719 706.539062 457.898438 684.109375 457.898438 C 660.160156 457.839844 641.664062 457.480469 629.003906 456.707031 Z M 629.003906 456.707031 " fill-opacity="1" fill-rule="nonzero"/></g></svg>